# AST/ASF file generated using VICON BodyLanguage
# -----------------------------------------------
:version 1.10
:name VICON
:units
  mass 1.0
  length 0.45
  angle deg
:documentation
   .ast/.asf automatically generated from VICON data using
   VICON BodyBuilder and BodyLanguage model FoxedUp or BRILLIANT.MOD
:root
   order TX TY TZ RX RY RZ
   axis XYZ
   position 0 0 0  
   orientation 0 0 0 
:bonedata
  begin
     id 1 
     name lhipjoint
     direction 0.57768 -0.667037 0.470475 
     length 2.36008 
     axis 0 0 0  XYZ
  end
  begin
     id 2 
     name lfemur
     direction 0.34202 -0.939693 0  
     length 6.97235  
     axis 0 0 20  XYZ
    dof rx ry rz
    limits (-160.0 20.0)
           (-70.0 70.0)
           (-60.0 70.0)
  end
  begin
     id 3 
     name ltibia
     direction 0.34202 -0.939693 0   
     length 6.93428   
     axis 0 0 20   XYZ
    dof rx
    limits (-10.0 170.0)
  end
  begin
     id 4 
     name lfoot
     direction 0.133018 -0.365463 0.921272   
     length 2.18603   
     axis -90 7.62852e-016 20   XYZ
    dof rx rz
    limits (-45.0 90.0)
           (-70.0 20.0)
  end
  begin
     id 5 
     name ltoes
     direction 1.53519e-011 -4.22055e-011 1   
     length 1.07924   
     axis -90 7.62852e-016 20   XYZ
    dof rx
    limits (-90.0 20.0)
  end
  begin
     id 6 
     name rhipjoint
     direction -0.577712 -0.667019 0.470462   
     length 2.36015  
     axis 0 0 0  XYZ 
  end
  begin
     id 7 
     name rfemur
     direction -0.34202 -0.939693 0   
     length 6.71195   
     axis 0 0 -20   XYZ
    dof rx ry rz
    limits (-160.0 20.0)
           (-70.0 70.0)
           (-70.0 60.0)
  end
  begin
     id 8 
     name rtibia
     direction -0.34202 -0.939693 0   
     length 7.04592   
     axis 0 0 -20   XYZ
    dof rx
    limits (-10.0 170.0)
 end
 begin
     id 9 
     name rfoot
     direction -0.113796 -0.312651 0.943027   
     length 2.03846  
     axis -90 -7.62852e-016 -20   XYZ
    dof rx rz
    limits (-45.0 90.0)
           (-20.0 70.0)
  end
  begin
     id 10 
     name rtoes
     direction -1.53586e-011 -4.218e-011 1   
     length 1.01562   
     axis -90 -7.62852e-016 -20   XYZ
    dof rx
    limits (-90.0 20.0)
  end
  begin
     id 11 
     name lowerback
     direction -0.0417299 0.991937 -0.119667   
     length 2.05257   
     axis 0 0 0   XYZ
    dof rx ry rz
    limits (-20.0 45.0)
           (-30.0 30.0)
           (-30.0 30.0)
  end
  begin
     id 12 
     name upperback
     direction -0.00017666 0.999999 0.00105178   
     length 2.05693   
     axis 0 0 0   XYZ
    dof rx ry rz
    limits (-20.0 45.0)
           (-30.0 30.0)
           (-30.0 30.0)
  end
  begin
     id 13 
     name thorax
     direction 0.0185169 0.998203 0.0569866   
     length 2.0932   
     axis 0 0 0   XYZ
    dof rx ry rz
    limits (-20.0 45.0)
           (-30.0 30.0)
           (-30.0 30.0)
  end
  begin
     id 14 
     name lowerneck
     direction -0.0212406 0.982645 0.184277   
     length 1.72509   
     axis 0 0 0   XYZ
    dof rx ry rz
    limits (-20.0 45.0)
           (-30.0 30.0)
           (-30.0 30.0)
  end
  begin
     id 15 
     name upperneck
     direction 0.00528579 0.965323 -0.261004   
     length 1.76294   
     axis 0 0 0   XYZ
    dof rx ry rz
    limits (-20.0 45.0)
           (-30.0 30.0)
           (-30.0 30.0)
  end
  begin
     id 16
     name head
     direction 0.00695421 0.994078 -0.108445  
     length 1.78678  
     axis 0 0 0   XYZ
    dof rx ry rz
    limits (-20.0 45.0)
           (-30.0 30.0)
           (-30.0 30.0)
  end
  begin
     id 17 
     name lclavicle
     direction 0.97277 0.211305 -0.095232  
     length 3.84823  
     axis 0 0 0   XYZ
    dof ry rz
    limits (-20.0 10.0)
           (0.0 20.0)
  end
  begin
     id 18 
     name lhumerus
     direction 1 -4.48957e-011 -1.98313e-027   
     length 4.97185   
     axis 180 -30 -90   XYZ
    dof rx ry rz
    limits (-60.0 90.0)
           (-90.0 90.0)
           (-90.0 90.0)
  end
  begin
     id 19
     name lradius
     direction 1 -4.4898e-011 7.31063e-027   
     length 3.35811   
     axis 180 -30 -90   XYZ
    dof rx
    limits (-10.0 170.0)
  end
  begin
     id 20
     name lwrist
     direction 1 -4.48938e-011 9.95048e-027   
     length 1.67905   
     axis -8.75986e-015 90 90   XYZ
    dof ry
    limits (-180.0 0.0)
 end
  begin
     id 21 
     name lhand
     direction 1 -4.4901e-011 1.9901e-026   
     length 0.622776   
     axis -1.26985e-014 90 90   XYZ
    dof rx rz
    limits (-90.0 90.0)
           (-45.0 45.0)
  end
  begin
     id 22 
     name lfingers
     direction 1 -4.48961e-011 3.98019e-026   
     length 0.502098   
     axis -2.5397e-014 90 90   XYZ
    dof rx
    limits (0.0 90.0)
  end
  begin
     id 23
     name lthumb
     direction 0.707107 -6.34933e-011 0.707107   
     length 0.720915   
     axis -90 45 2.85299e-015   XYZ
    dof rx rz
    limits (-45.0 45.0)
           (-45.0 45.0)
  end
  begin
     id 24 
     name rclavicle
     direction -0.990867 0.133739 -0.0172226   
     length 3.78845  
     axis 0 0 0   XYZ 
    dof ry rz
    limits (-10.0 20.0)
           (-20.0 0.0)
  end
  begin
     id 25 
     name rhumerus
     direction -1 -4.48972e-011 -1.99267e-027  
     length 4.96493   
     axis 180 30 90   XYZ
    dof rx ry rz
    limits (-90.0 60.0)
           (-90.0 90.0)
           (-90.0 90.0)
  end
  begin
     id 26 
     name rradius
     direction -1 -4.48969e-011 8.96093e-027   
     length 3.34929   
     axis 180 30 90   XYZ
    dof rx
    limits (-10.0 170.0)
  end
  begin
     id 27 
     name rwrist
     direction -1 -4.48953e-011 9.95048e-027   
     length 1.67464   
     axis -8.75986e-015 -90 -90   XYZ
    dof ry
    limits (-180.0 0.0)
  end
  begin
     id 28
     name rhand
     direction -1 -4.49001e-011 1.9901e-026   
     length 0.638041   
     axis -1.26985e-014 -90 -90   XYZ
    dof rx rz
    limits (-90.0 90.0)
           (-45.0 45.0)
  end
  begin
     id 29
     name rfingers
     direction -1 -4.48967e-011 3.98019e-026   
     length 0.514405   
     axis -2.5397e-014 -90 -90   XYZ
    dof rx
    limits (0.0 90.0)
  end
  begin
     id 30
     name rthumb
     direction -0.707107 -6.34904e-011 0.707107   
     length 0.738586   
     axis -90 -45 -2.85299e-015   XYZ
    dof rx rz
    limits (-45.0 45.0)
           (-45.0 45.0)
  end
:hierarchy
  begin
    root lhipjoint rhipjoint lowerback
    lhipjoint lfemur
    lfemur ltibia
    ltibia lfoot
    lfoot ltoes
    rhipjoint rfemur
    rfemur rtibia
    rtibia rfoot
    rfoot rtoes
    lowerback upperback
    upperback thorax
    thorax lowerneck lclavicle rclavicle
    lowerneck upperneck
    upperneck head
    lclavicle lhumerus
    lhumerus lradius
    lradius lwrist
    lwrist lhand lthumb
    lhand lfingers
    rclavicle rhumerus
    rhumerus rradius
    rradius rwrist
    rwrist rhand rthumb
    rhand rfingers
  end

#!OML:ASF E:\Mandelcareful walks\Project 1\Capture day 1\Session 1\Subject1.ASF
:FULLY-SPECIFIED
:DEGREES
127
root -6.33455 15.0735 0.0900543 84.5519 78.2073 71.5195
lowerback 40.6923 1.73909 1.70542
upperback 10.8632 4.11225 -1.35441
thorax -7.24674 2.57856 -4.02444
lowerneck -28.6507 -4.44299 -6.2838
upperneck 25.1306 -2.96595 -0.960361
head 13.3253 -1.99916 0.0876534
rclavicle -5.88403e-014 -7.95139e-015
rhumerus 14.9313 1.76323 -81.8309
rradius 51.1918
rwrist -27.5332
rhand -17.3214 -33.4078
rfingers 7.12502
rthumb 8.9252 -63.199
lclavicle -5.88403e-014 -7.95139e-015
lhumerus -23.7833 -7.48734 88.0075
lradius 30.9909
lwrist 17.6104
lhand -18.666 -9.21198
lfingers 7.12502
lthumb 7.62752 20.6305
rfemur -53.146 -19.9006 5.21953
rtibia 64.615
rfoot -21.5349 0.118258
rtoes -5.61587
lfemur -49.3098 15.2026 -27.6339
ltibia 62.0343
lfoot -21.4815 4.9328
ltoes -10.4772
128
root -6.34466 15.0141 0.0624637 85.7137 78.3073 72.4504
lowerback 41.0571 1.65658 1.74959
upperback 11.1471 4.08732 -1.38163
thorax -7.0392 2.6 -4.06638
lowerneck -28.982 -4.61522 -6.38656
upperneck 24.7069 -3.19663 -0.838348
head 13.2235 -2.09112 0.10415
rclavicle -4.6118e-014 -2.70347e-014
rhumerus 16.4749 1.47444 -81.9666
rradius 50.9774
rwrist -27.8864
rhand -17.2831 -33.6736
rfingers 7.12502
rthumb 8.96212 -63.4632
lclavicle -4.6118e-014 -2.70347e-014
lhumerus -23.2902 -7.4682 87.9136
lradius 31.1249
lwrist 17.9878
lhand -18.3366 -8.35719
lfingers 7.12502
lthumb 7.94549 21.4735
rfemur -53.899 -20.1432 5.2033
rtibia 65.5539
rfoot -21.758 0.179066
rtoes -4.67029
lfemur -50.1838 15.1298 -27.7964
ltibia 62.9959
lfoot -21.8264 4.71301
ltoes -10.5205
129
root -6.35227 14.9614 0.0325211 87.4489 78.4656 74.0413
lowerback 41.5735 1.51474 1.90938
upperback 11.1636 4.01524 -1.35442
thorax -7.17381 2.57395 -4.11066
lowerneck -28.5997 -4.71084 -6.51284
upperneck 24.2315 -3.36233 -0.709733
head 12.966 -2.15229 0.154121
rclavicle 2.8625e-014 7.95139e-015
rhumerus 17.6006 1.29814 -82.0261
rradius 50.5241
rwrist -28.2914
rhand -16.9039 -34.0899
rfingers 7.12502
rthumb 9.32804 -63.8635
lclavicle 2.8625e-014 7.95139e-015
lhumerus -23.6009 -7.7947 88.0545
lradius 30.8545
lwrist 17.4203
lhand -19.9718 -11.4545
lfingers 7.12502
lthumb 6.36705 18.4298
rfemur -54.499 -20.6027 5.25441
rtibia 66.37
rfoot -21.9211 0.195966
rtoes -5.07758
lfemur -50.9436 14.8758 -27.8704
ltibia 63.854
lfoot -22.0816 4.63508
ltoes -11.029
130
root -6.35679 14.9083 0.00649985 88.8271 78.5417 75.3149
lowerback 42.3643 1.46418 1.93728
upperback 11.0129 3.99299 -1.32067
thorax -7.57626 2.55386 -4.11779
lowerneck -28.5121 -4.79362 -6.50676
upperneck 24.1499 -3.46908 -0.770501
head 12.9183 -2.20556 0.111276
rclavicle -1.90833e-014 1.24042e-013
rhumerus 18.3968 1.09678 -82.1452
rradius 50.2654
rwrist -28.5111
rhand -16.7816 -34.2594
rfingers 7.12502
rthumb 9.44606 -64.0277
lclavicle -1.90833e-014 1.24042e-013
lhumerus -23.9609 -8.04928 88.1833
lradius 31.0836
lwrist 17.509
lhand -20.1272 -11.5664
lfingers 7.12502
lthumb 6.21698 18.3223
rfemur -55.0207 -20.9606 5.21847
rtibia 67.1312
rfoot -22.0913 0.21369
rtoes -5.09818
lfemur -51.6414 14.7223 -27.982
ltibia 64.6535
lfoot -22.2776 4.50076
ltoes -11.5098
131
root -6.35758 14.8552 -0.0159621 90.0059 78.5486 76.3911
lowerback 42.8956 1.50114 1.95301
upperback 11.0475 4.08182 -1.3116
thorax -7.68361 2.60357 -4.17014
lowerneck -28.5992 -4.97171 -6.36932
upperneck 24.0496 -3.73923 -0.881817
head 12.8955 -2.32569 -0.00714941
rclavicle 5.88403e-014 4.77083e-014
rhumerus 19.2031 0.682495 -82.2126
rradius 50.1551
rwrist -28.6314
rhand -17.129 -33.5228
rfingers 7.12502
rthumb 9.1109 -63.306
lclavicle 5.88403e-014 4.77083e-014
lhumerus -23.9259 -8.56568 88.3008
lradius 31.2493
lwrist 17.8296
lhand -20.0456 -11.2784
lfingers 7.12502
lthumb 6.29583 18.6081
rfemur -55.5096 -21.2949 5.10994
rtibia 67.8863
rfoot -22.311 0.365132
rtoes -3.94429
lfemur -52.2729 14.6182 -28.1361
ltibia 65.4388
lfoot -22.4639 4.3124
ltoes -11.381
132
root -6.35756 14.8005 -0.0373722 91.7976 78.5531 78.0044
lowerback 43.264 1.53088 2.11702
upperback 11.1662 4.22358 -1.35237
thorax -7.63364 2.68958 -4.36283
lowerneck -28.9242 -5.32232 -6.33688
upperneck 23.9383 -4.2894 -0.681752
head 12.9286 -2.5352 -0.0475663
rclavicle -4.77083e-014 2.06736e-014
rhumerus 20.0307 0.0105361 -82.1917
rradius 50.062
rwrist -28.8991
rhand -17.3213 -33.6381
rfingers 7.12502
rthumb 8.92529 -63.4293
lclavicle -4.77083e-014 2.06736e-014
lhumerus -23.7135 -9.37916 88.3198
lradius 31.7974
lwrist 18.4678
lhand -19.2423 -9.75333
lfingers 7.12502
lthumb 7.07127 20.1085
rfemur -56.1121 -21.8567 5.06729
rtibia 68.6546
rfoot -22.5252 0.585892
rtoes -3.74683
lfemur -52.9622 14.3135 -28.271
ltibia 66.2455
lfoot -22.7034 4.13803
ltoes -10.6239
133
root -6.35606 14.742 -0.0582329 94.1552 78.5763 80.0947
lowerback 43.364 1.3436 2.1348
upperback 11.1749 4.03053 -1.2642
thorax -7.67024 2.60098 -4.2027
lowerneck -28.5133 -5.3941 -6.75746
upperneck 23.5211 -4.33438 -0.40196
head 12.7044 -2.55171 0.133191
rclavicle 3.18055e-014 -1.27222e-014
rhumerus 20.7811 0.297624 -82.0858
rradius 49.7984
rwrist -29.2006
rhand -17.2771 -33.6577
rfingers 7.12502
rthumb 8.96798 -63.4471
lclavicle 3.18055e-014 -1.27222e-014
lhumerus -23.9882 -9.3237 88.4657
lradius 31.531
lwrist 17.9521
lhand -20.5496 -13.2325
lfingers 7.12502
lthumb 5.80924 16.6678
rfemur -56.7768 -22.4775 5.06073
rtibia 69.4436
rfoot -22.7057 0.652769
rtoes -4.49783
lfemur -53.7702 13.8681 -28.3915
ltibia 67.0633
lfoot -23.0268 3.92845
ltoes -10.3098
